P3
# Created by GIMP version 2.10.30 PNM plug-in
80 80
255
0
0
0
0
0
0
0
0
0
0
0
0
0
0
0
0
0
0
0
0
0
0
0
0
0
0
0
0
0
0
0
0
0
0
0
0
0
0
0
0
0
0
0
0
0
0
0
0
0
0
0
0
0
0
0
0
0
0
0
0
0
0
0
0
0
0
0
0
0
0
0
0
0
0
0
0
0
0
0
0
0
0
0
0
0
0
0
0
0
0
0
0
0
0
0
0
0
0
0
0
0
0
0
0
0
0
0
0
6
6
6
6
6
6
10
10
10
10
10
10
10
10
10
6
6
6
6
6
6
6
6
6
0
0
0
0
0
0
0
0
0
0
0
0
0
0
0
0
0
0
0
0
0
0
0
0
0
0
0
0
0
0
0
0
0
0
0
0
0
0
0
0
0
0
0
0
0
0
0
0
0
0
0
0
0
0
0
0
0
0
0
0
0
0
0
0
0
0
0
0
0
0
0
0
0
0
0
0
0
0
0
0
0
0
0
0
0
0
0
0
0
0
0
0
0
0
0
0
0
0
0
0
0
0
0
0
0
0
0
0
0
0
0
0
0
0
0
0
0
0
0
0
0
0
0
0
0
0
0
0
0
0
0
0
0
0
0
0
0
0
0
0
0
0
0
0
0
0
0
0
0
0
0
0
0
0
0
0
0
0
0
0
0
0
0
0
0
0
0
0
0
0
0
0
0
0
0
0
0
0
0
0
0
0
0
0
0
0
0
0
0
0
0
0
0
0
0
0
0
0
0
0
0
0
0
0
0
0
0
6
6
6
10
10
10
14
14
14
22
22
22
26
26
26
30
30
30
34
34
34
30
30
30
30
30
30
26
26
26
18
18
18
14
14
14
10
10
10
6
6
6
0
0
0
0
0
0
0
0
0
0
0
0
0
0
0
0
0
0
0
0
0
0
0
0
0
0
0
0
0
0
0
0
0
0
0
0
0
0
0
0
0
0
0
0
0
0
0
0
0
0
0
0
0
0
0
0
0
0
0
0
0
0
0
0
0
0
0
0
0
0
0
0
0
0
0
0
0
0
0
0
0
0
0
0
0
0
0
0
0
0
0
0
0
0
0
0
0
0
0
0
0
0
0
0
0
0
0
0
0
0
0
0
0
0
0
0
1
0
0
1
0
0
0
0
0
0
0
0
0
0
0
0
0
0
0
0
0
0
0
0
0
0
0
0
0
0
0
0
0
0
0
0
0
0
0
0
0
0
0
0
0
0
0
0
0
0
0
0
0
0
0
0
0
0
0
0
0
0
0
0
0
0
0
0
0
0
0
0
0
0
0
0
0
0
0
6
6
6
14
14
14
26
26
26
42
42
42
54
54
54
66
66
66
78
78
78
78
78
78
78
78
78
74
74
74
66
66
66
54
54
54
42
42
42
26
26
26
18
18
18
10
10
10
6
6
6
0
0
0
0
0
0
0
0
0
0
0
0
0
0
0
0
0
0
0
0
0
0
0
0
0
0
0
0
0
0
0
0
0
0
0
0
0
0
0
0
0
0
0
0
0
0
0
0
0
0
0
0
0
0
0
0
0
0
0
0
0
0
0
0
0
0
0
0
0
0
0
0
0
0
0
0
0
0
0
0
0
0
0
0
0
0
0
0
0
0
0
0
0
0
0
0
0
0
0
0
0
0
0
0
0
0
0
1
0
0
0
0
0
0
0
0
0
0
0
0
0
0
0
0
0
0
0
0
0
0
0
0
0
0
0
0
0
0
0
0
0
0
0
0
0
0
0
0
0
0
0
0
0
0
0
0
0
0
0
0
0
0
0
0
0
0
0
0
0
0
0
0
0
0
0
0
0
0
0
0
0
0
0
0
0
0
10
10
10
22
22
22
42
42
42
66
66
66
86
86
86
66
66
66
38
38
38
38
38
38
22
22
22
26
26
26
34
34
34
54
54
54
66
66
66
86
86
86
70
70
70
46
46
46
26
26
26
14
14
14
6
6
6
0
0
0
0
0
0
0
0
0
0
0
0
0
0
0
0
0
0
0
0
0
0
0
0
0
0
0
0
0
0
0
0
0
0
0
0
0
0
0
0
0
0
0
0
0
0
0
0
0
0
0
0
0
0
0
0
0
0
0
0
0
0
0
0
0
0
0
0
0
0
0
0
0
0
0
0
0
0
0
0
0
0
0
0
0
0
0
0
0
0
0
0
0
0
0
0
0
0
0
0
0
0
0
0
1
0
0
1
0
0
1
0
0
0
0
0
0
0
0
0
0
0
0
0
0
0
0
0
0
0
0
0
0
0
0
0
0
0
0
0
0
0
0
0
0
0
0
0
0
0
0
0
0
0
0
0
0
0
0
0
0
0
0
0
0
0
0
0
0
0
0
0
0
0
0
0
0
0
0
0
10
10
10
26
26
26
50
50
50
82
82
82
58
58
58
6
6
6
2
2
6
2
2
6
2
2
6
2
2
6
2
2
6
2
2
6
2
2
6
2
2
6
6
6
6
54
54
54
86
86
86
66
66
66
38
38
38
18
18
18
6
6
6
0
0
0
0
0
0
0
0
0
0
0
0
0
0
0
0
0
0
0
0
0
0
0
0
0
0
0
0
0
0
0
0
0
0
0
0
0
0
0
0
0
0
0
0
0
0
0
0
0
0
0
0
0
0
0
0
0
0
0
0
0
0
0
0
0
0
0
0
0
0
0
0
0
0
0
0
0
0
0
0
0
0
0
0
0
0
0
0
0
0
0
0
0
0
0
0
0
0
0
0
0
0
0
0
0
0
0
0
0
0
0
0
0
0
0
0
0
0
0
0
0
0
0
0
0
0
0
0
0
0
0
0
0
0
0
0
0
0
0
0
0
0
0
0
0
0
0
0
0
0
0
0
0
0
0
0
0
0
0
0
0
0
0
0
0
0
0
0
0
0
0
0
0
0
6
6
6
22
22
22
50
50
50
78
78
78
34
34
34
2
2
6
2
2
6
2
2
6
2
2
6
2
2
6
2
2
6
2
2
6
2
2
6
2
2
6
2
2
6
2
2
6
2
2
6
6
6
6
70
70
70
78
78
78
46
46
46
22
22
22
6
6
6
0
0
0
0
0
0
0
0
0
0
0
0
0
0
0
0
0
0
0
0
0
0
0
0
0
0
0
0
0
0
0
0
0
0
0
0
0
0
0
0
0
0
0
0
0
0
0
0
0
0
0
0
0
0
0
0
0
0
0
0
0
0
0
0
0
0
0
0
0
0
0
0
0
0
0
0
0
0
0
0
0
0
0
0
0
0
0
0
0
0
0
0
0
0
0
0
0
0
1
0
0
1
0
0
1
0
0
0
0
0
0
0
0
0
0
0
0
0
0
0
0
0
0
0
0
0
0
0
0
0
0
0
0
0
0
0
0
0
0
0
0
0
0
0
0
0
0
0
0
0
0
0
0
0
0
0
0
0
0
0
0
0
0
0
0
0
0
0
6
6
6
18
18
18
42
42
42
82
82
82
26
26
26
2
2
6
2
2
6
2
2
6
2
2
6
2
2
6
2
2
6
2
2
6
2
2
6
2
2
6
2
2
6
14
14
14
46
46
46
34
34
34
6
6
6
2
2
6
42
42
42
78
78
78
42
42
42
18
18
18
6
6
6
0
0
0
0
0
0
0
0
0
0
0
0
0
0
0
0
0
0
0
0
0
0
0
0
0
0
0
0
0
0
0
0
0
0
0
0
0
0
0
0
0
0
0
0
0
0
0
0
0
0
0
0
0
0
0
0
0
0
0
0
0
0
0
0
0
0
0
0
0
0
0
0
0
0
0
0
0
0
0
0
0
0
0
0
0
0
0
0
0
0
0
0
0
0
0
1
0
0
0
0
0
1
0
0
0
0
0
0
0
0
0
0
0
0
0
0
0
0
0
0
0
0
0
0
0
0
0
0
0
0
0
0
0
0
0
0
0
0
0
0
0
0
0
0
0
0
0
0
0
0
0
0
0
0
0
0
0
0
0
0
0
0
0
0
0
10
10
10
30
30
30
66
66
66
58
58
58
2
2
6
2
2
6
2
2
6
2
2
6
2
2
6
2
2
6
2
2
6
2
2
6
2
2
6
2
2
6
2
2
6
26
26
26
86
86
86
106
106
106
46
46
46
10
10
10
2
2
6
58
58
58
70
70
70
34
34
34
10
10
10
0
0
0
0
0
0
0
0
0
0
0
0
0
0
0
0
0
0
0
0
0
0
0
0
0
0
0
0
0
0
0
0
0
0
0
0
0
0
0
0
0
0
0
0
0
0
0
0
0
0
0
0
0
0
0
0
0
0
0
0
0
0
0
0
0
0
0
0
0
0
0
0
0
0
0
0
0
0
0
0
0
0
0
0
0
0
0
0
0
0
0
0
0
0
0
1
0
0
1
0
0
1
0
0
0
0
0
0
0
0
0
0
0
0
0
0
0
0
0
0
0
0
0
0
0
0
0
0
0
0
0
0
0
0
0
0
0
0
0
0
0
0
0
0
0
0
0
0
0
0
0
0
0
0
0
0
0
0
0
0
0
0
0
0
0
14
14
14
42
42
42
86
86
86
10
10
10
2
2
6
2
2
6
2
2
6
2
2
6
2
2
6
2
2
6
2
2
6
2
2
6
2
2
6
2
2
6
2
2
6
30
30
30
94
94
94
94
94
94
58
58
58
26
26
26
2
2
6
6
6
6
78
78
78
54
54
54
22
22
22
6
6
6
0
0
0
0
0
0
0
0
0
0
0
0
0
0
0
0
0
0
0
0
0
0
0
0
0
0
0
0
0
0
0
0
0
0
0
0
0
0
0
0
0
0
0
0
0
0
0
0
0
0
0
0
0
0
0
0
0
0
0
0
0
0
0
0
0
0
0
0
0
0
0
0
0
0
0
0
0
0
0
0
0
0
0
0
0
0
0
0
0
0
0
0
0
0
0
0
0
0
0
0
0
0
0
0
0
0
0
0
0
0
0
0
0
0
0
0
0
0
0
0
0
0
0
0
0
0
0
0
0
0
0
0
0
0
0
0
0
0
0
0
0
0
0
0
0
0
0
0
0
0
0
0
0
0
0
0
0
0
0
6
6
6
22
22
22
62
62
62
62
62
62
2
2
6
2
2
6
2
2
6
2
2
6
2
2
6
2
2
6
2
2
6
2
2
6
2
2
6
2
2
6
2
2
6
2
2
6
26
26
26
54
54
54
38
38
38
18
18
18
10
10
10
2
2
6
2
2
6
34
34
34
82
82
82
38
38
38
14
14
14
0
0
0
0
0
0
0
0
0
0
0
0
0
0
0
0
0
0
0
0
0
0
0
0
0
0
0
0
0
0
0
0
0
0
0
0
0
0
0
0
0
0
0
0
0
0
0
0
0
0
0
0
0
0
0
0
0
0
0
0
0
0
0
0
0
0
0
0
0
0
0
0
0
0
0
0
0
0
0
0
0
0
0
0
0
0
0
0
0
0
0
0
0
0
0
1
0
0
1
0
0
0
0
0
0
0
0
0
0
0
0
0
0
0
0
0
0
0
0
0
0
0
0
0
0
0
0
0
0
0
0
0
0
0
0
0
0
0
0
0
0
0
0
0
0
0
0
0
0
0
0
0
0
0
0
0
0
0
0
6
6
6
30
30
30
78
78
78
30
30
30
2
2
6
2
2
6
2
2
6
2
2
6
2
2
6
2
2
6
2
2
6
2
2
6
2
2
6
2
2
6
2
2
6
2
2
6
10
10
10
10
10
10
2
2
6
2
2
6
2
2
6
2
2
6
2
2
6
2
2
6
78
78
78
50
50
50
18
18
18
6
6
6
0
0
0
0
0
0
0
0
0
0
0
0
0
0
0
0
0
0
0
0
0
0
0
0
0
0
0
0
0
0
0
0
0
0
0
0
0
0
0
0
0
0
0
0
0
0
0
0
0
0
0
0
0
0
0
0
0
0
0
0
0
0
0
0
0
0
0
0
0
0
0
0
0
0
0
0
0
0
0
0
0
0
0
0
0
0
0
0
0
1
0
0
0
0
0
0
0
0
0
0
0
0
0
0
0
0
0
0
0
0
0
0
0
0
0
0
0
0
0
0
0
0
0
0
0
0
0
0
0
0
0
0
0
0
0
0
0
0
0
0
0
0
0
0
0
0
0
0
0
0
0
0
0
0
0
0
10
10
10
38
38
38
86
86
86
14
14
14
2
2
6
2
2
6
2
2
6
2
2
6
2
2
6
2
2
6
2
2
6
2
2
6
2
2
6
2
2
6
2
2
6
2
2
6
2
2
6
2
2
6
2
2
6
2
2
6
2
2
6
2
2
6
2
2
6
2
2
6
54
54
54
66
66
66
26
26
26
6
6
6
0
0
0
0
0
0
0
0
0
0
0
0
0
0
0
0
0
0
0
0
0
0
0
0
0
0
0
0
0
0
0
0
0
0
0
0
0
0
0
0
0
0
0
0
0
0
0
0
0
0
0
0
0
0
0
0
0
0
0
0
0
0
0
0
0
0
0
0
0
0
0
0
0
0
0
0
0
0
0
0
0
0
0
0
0
0
0
0
0
0
0
0
1
0
0
1
0
0
0
0
0
0
0
0
0
0
0
0
0
0
0
0
0
0
0
0
0
0
0
0
0
0
0
0
0
0
0
0
0
0
0
0
0
0
0
0
0
0
0
0
0
0
0
0
0
0
0
0
0
0
0
0
0
0
0
0
14
14
14
42
42
42
82
82
82
2
2
6
2
2
6
2
2
6
6
6
6
10
10
10
2
2
6
2
2
6
2
2
6
2
2
6
2
2
6
2
2
6
2
2
6
2
2
6
6
6
6
14
14
14
10
10
10
2
2
6
2
2
6
2
2
6
2
2
6
2
2
6
18
18
18
82
82
82
34
34
34
10
10
10
0
0
0
0
0
0
0
0
0
0
0
0
0
0
0
0
0
0
0
0
0
0
0
0
0
0
0
0
0
0
0
0
0
0
0
0
0
0
0
0
0
0
0
0
0
0
0
0
0
0
0
0
0
0
0
0
0
0
0
0
0
0
0
0
0
0
0
0
0
0
0
0
0
0
0
0
0
0
0
0
0
0
0
0
0
0
0
0
0
1
0
0
0
0
0
0
0
0
0
0
0
0
0
0
0
0
0
0
0
0
0
0
0
0
0
0
0
0
0
0
0
0
0
0
0
0
0
0
0
0
0
0
0
0
0
0
0
0
0
0
0
0
0
0
0
0
0
0
0
0
0
0
0
0
0
0
14
14
14
46
46
46
86
86
86
2
2
6
2
2
6
6
6
6
6
6
6
22
22
22
34
34
34
6
6
6
2
2
6
2
2
6
2
2
6
2
2
6
2
2
6
18
18
18
34
34
34
10
10
10
50
50
50
22
22
22
2
2
6
2
2
6
2
2
6
2
2
6
10
10
10
86
86
86
42
42
42
14
14
14
0
0
0
0
0
0
0
0
0
0
0
0
0
0
0
0
0
0
0
0
0
0
0
0
0
0
0
0
0
0
0
0
0
0
0
0
0
0
0
0
0
0
0
0
0
0
0
0
0
0
0
0
0
0
0
0
0
0
0
0
0
0
0
0
0
0
0
0
0
0
0
0
0
0
0
0
0
0
0
0
0
0
0
0
0
0
0
0
0
1
0
0
1
0
0
1
0
0
0
0
0
0
0
0
0
0
0
0
0
0
0
0
0
0
0
0
0
0
0
0
0
0
0
0
0
0
0
0
0
0
0
0
0
0
0
0
0
0
0
0
0
0
0
0
0
0
0
0
0
0
0
0
0
0
0
0
14
14
14
46
46
46
86
86
86
2
2
6
2
2
6
38
38
38
123
123
123
94
94
94
22
22
22
22
22
22
2
2
6
2
2
6
2
2
6
14
14
14
86
86
86
123
123
123
158
158
158
158
158
158
38
38
38
26
26
26
6
6
6
2
2
6
2
2
6
2
2
6
2
2
6
86
86
86
46
46
46
14
14
14
0
0
0
0
0
0
0
0
0
0
0
0
0
0
0
0
0
0
0
0
0
0
0
0
0
0
0
0
0
0
0
0
0
0
0
0
0
0
0
0
0
0
0
0
0
0
0
0
0
0
0
0
0
0
0
0
0
0
0
0
0
0
0
0
0
0
0
0
0
0
0
0
0
0
0
0
0
0
0
0
0
0
0
0
0
0
0
0
0
0
0
0
0
0
0
0
0
0
0
0
0
0
0
0
0
0
0
0
0
0
0
0
0
0
0
0
0
0
0
0
0
0
0
0
0
0
0
0
0
0
0
0
0
0
0
0
0
0
0
0
0
0
0
0
0
0
0
0
0
0
0
0
0
0
0
0
14
14
14
46
46
46
86
86
86
2
2
6
14
14
14
123
123
123
198
198
198
195
195
195
123
123
123
10
10
10
2
2
6
2
2
6
6
6
6
101
98
89
187
187
187
210
210
210
220
220
220
210
210
210
123
123
123
14
14
14
6
6
6
2
2
6
2
2
6
2
2
6
2
2
6
86
86
86
50
50
50
18
18
18
6
6
6
0
0
0
0
0
0
0
0
0
0
0
0
0
0
0
0
0
0
0
0
0
0
0
0
0
0
0
0
0
0
0
0
0
0
0
0
0
0
0
0
0
0
0
0
0
0
0
0
0
0
0
0
0
0
0
0
0
0
0
0
0
0
0
0
0
0
0
0
0
0
0
0
0
0
0
0
0
0
0
0
1
0
0
0
0
0
1
0
0
1
0
0
1
0
0
0
0
0
0
0
0
0
0
0
0
0
0
0
0
0
0
0
0
0
0
0
0
0
0
0
0
0
0
0
0
0
0
0
0
0
0
0
0
0
0
0
0
0
0
0
0
0
0
0
0
0
0
0
0
0
0
0
0
14
14
14
46
46
46
86
86
86
2
2
6
54
54
54
220
220
220
195
195
195
226
226
226
246
246
246
58
58
58
2
2
6
2
2
6
30
30
30
210
210
210
253
253
253
170
170
170
123
123
123
220
220
220
234
234
234
74
74
74
2
2
6
2
2
6
2
2
6
2
2
6
2
2
6
70
70
70
58
58
58
22
22
22
6
6
6
0
0
0
0
0
0
0
0
0
0
0
0
0
0
0
0
0
0
0
0
0
0
0
0
0
0
0
0
0
0
0
0
0
0
0
0
0
0
0
0
0
0
0
0
0
0
0
0
0
0
0
0
0
0
0
0
0
0
0
0
0
0
0
0
0
0
0
0
0
0
0
0
0
0
0
0
0
0
0
0
0
0
0
0
0
0
0
0
0
0
0
0
0
0
0
0
0
0
0
0
0
0
0
0
0
0
0
0
0
0
0
0
0
0
0
0
0
0
0
0
0
0
0
0
0
0
0
0
0
0
0
0
0
0
0
0
0
0
0
0
0
0
0
0
0
0
0
0
0
0
0
0
0
14
14
14
46
46
46
82
82
82
2
2
6
106
106
106
170
170
170
26
26
26
86
86
86
226
226
226
123
123
123
10
10
10
14
14
14
46
46
46
231
231
231
190
190
190
6
6
6
70
70
70
90
90
90
238
238
238
158
158
158
2
2
6
2
2
6
2
2
6
2
2
6
2
2
6
70
70
70
58
58
58
22
22
22
6
6
6
0
0
0
0
0
0
0
0
0
0
0
0
0
0
0
0
0
0
0
0
0
0
0
0
0
0
0
0
0
0
0
0
0
0
0
0
0
0
0
0
0
0
0
0
0
0
0
0
0
0
0
0
0
0
0
0
0
0
0
0
0
0
0
0
0
0
0
0
0
0
0
0
0
0
0
0
0
0
0
0
1
0
0
0
0
0
1
0
0
1
0
0
1
0
0
0
0
0
0
0
0
0
0
0
0
0
0
0
0
0
0
0
0
0
0
0
0
0
0
0
0
0
0
0
0
0
0
0
0
0
0
0
0
0
0
0
0
0
0
0
0
0
0
0
0
0
0
0
0
0
0
0
0
14
14
14
42
42
42
86
86
86
6
6
6
123
123
123
106
106
106
6
6
6
70
70
70
158
158
158
123
123
123
18
18
18
38
38
38
54
54
54
220
220
220
106
106
106
2
2
6
14
14
14
46
46
46
190
190
190
198
198
198
2
2
6
2
2
6
2
2
6
2
2
6
2
2
6
74
74
74
62
62
62
22
22
22
6
6
6
0
0
0
0
0
0
0
0
0
0
0
0
0
0
0
0
0
0
0
0
0
0
0
0
0
0
0
0
0
0
0
0
0
0
0
0
0
0
0
0
0
0
0
0
0
0
0
0
0
0
0
0
0
0
0
0
0
0
0
0
0
0
0
0
0
0
0
0
0
0
0
0
0
0
0
0
0
0
0
0
1
0
0
0
0
0
1
0
0
0
0
0
1
0
0
0
0
0
0
0
0
0
0
0
0
0
0
0
0
0
0
0
0
0
0
0
0
0
0
0
0
0
0
0
0
0
0
0
0
0
0
0
0
0
0
0
0
0
0
0
0
0
0
0
0
0
0
0
0
0
0
0
0
14
14
14
42
42
42
94
94
94
14
14
14
106
106
106
123
123
123
2
2
6
18
18
18
123
123
123
118
97
48
113
104
8
113
104
8
97
70
12
158
158
158
106
106
106
2
2
6
2
2
6
2
2
6
195
195
195
195
195
195
6
6
6
2
2
6
2
2
6
2
2
6
2
2
6
74
74
74
62
62
62
22
22
22
6
6
6
0
0
0
0
0
0
0
0
0
0
0
0
0
0
0
0
0
0
0
0
0
0
0
0
0
0
0
0
0
0
0
0
0
0
0
0
0
0
0
0
0
0
0
0
0
0
0
0
0
0
0
0
0
0
0
0
0
0
0
0
0
0
0
0
0
0
0
0
0
0
0
0
0
0
0
0
0
0
0
0
1
0
0
1
0
0
1
0
0
0
0
0
1
0
0
0
0
0
0
0
0
0
0
0
0
0
0
0
0
0
0
0
0
0
0
0
0
0
0
0
0
0
0
0
0
0
0
0
0
0
0
0
0
0
0
0
0
0
0
0
0
0
0
0
0
0
0
0
0
0
0
0
0
10
10
10
38
38
38
90
90
90
14
14
14
58
58
58
210
210
210
26
26
26
42
35
1
151
117
15
226
170
11
237
186
11
226
170
11
181
146
13
214
175
14
167
147
58
30
25
5
2
2
6
70
70
70
246
246
246
123
123
123
2
2
6
2
2
6
2
2
6
2
2
6
2
2
6
70
70
70
66
66
66
26
26
26
6
6
6
0
0
0
0
0
0
0
0
0
0
0
0
0
0
0
0
0
0
0
0
0
0
0
0
26
28
5
103
106
9
154
157
31
154
157
31
143
113
18
88
83
7
13
3
2
0
0
0
0
0
0
0
0
0
0
0
0
0
0
0
0
0
0
0
0
0
0
0
0
0
0
0
0
0
0
0
0
0
0
0
0
0
0
0
0
0
0
0
0
0
0
0
0
0
0
0
0
0
0
0
0
0
0
0
0
0
0
0
0
0
0
0
0
0
0
0
0
0
0
0
0
0
0
0
0
0
0
0
0
0
0
0
0
0
0
0
0
0
0
0
0
0
0
0
0
0
0
0
0
0
0
0
0
10
10
10
38
38
38
86
86
86
14
14
14
10
10
10
195
195
195
185
159
85
192
133
9
226
170
11
239
182
13
237
186
11
232
195
16
232
195
16
242
215
41
241
208
19
232
195
16
181
146
13
212
199
131
198
198
198
42
42
42
2
2
6
2
2
6
2
2
6
2
2
6
2
2
6
50
50
50
74
74
74
30
30
30
6
6
6
0
0
0
0
0
0
0
0
0
0
0
0
0
0
0
0
0
0
5
17
5
154
157
31
250
250
23
252
252
23
252
252
23
252
252
23
252
252
23
252
252
23
240
240
22
143
113
18
6
6
6
0
0
0
0
0
0
0
0
0
0
0
0
0
0
0
0
0
0
0
0
0
0
0
0
0
0
0
0
0
0
0
0
0
0
0
0
0
0
0
0
0
0
0
0
0
0
0
0
0
0
0
0
0
0
0
0
0
0
0
0
0
0
0
0
0
0
0
0
0
0
0
0
0
0
0
0
0
0
0
0
0
0
0
0
0
0
0
0
0
0
0
0
0
0
0
0
0
0
0
0
0
0
10
10
10
34
34
34
86
86
86
14
14
14
2
2
6
118
86
26
192
133
9
216
158
10
239
182
13
237
186
11
232
195
16
241
208
19
246
218
45
246
218
45
242
215
41
241
208
19
241
208
19
241
208
19
219
190
12
118
86
26
2
2
6
2
2
6
2
2
6
2
2
6
2
2
6
50
50
50
82
82
82
34
34
34
10
10
10
0
0
0
0
0
0
0
0
0
0
0
0
0
0
0
26
28
5
219
190
12
252
252
23
240
240
22
143
113
18
84
77
10
68
72
4
88
83
7
154
157
31
240
240
22
252
252
23
186
186
17
16
24
9
0
0
0
0
0
0
0
0
0
0
0
0
0
0
0
0
0
0
0
0
0
0
0
0
0
0
0
0
0
0
0
0
0
0
0
0
0
0
0
0
0
0
0
0
0
0
0
0
0
0
0
0
0
0
0
0
0
0
0
0
0
0
0
0
0
0
0
0
0
0
0
0
0
0
0
0
0
0
0
0
0
0
0
0
0
0
0
0
0
0
0
0
0
0
0
0
0
0
0
10
10
10
34
34
34
82
82
82
30
30
30
60
51
13
180
123
7
206
145
10
230
174
11
239
182
13
237
186
11
234
196
14
241
208
19
229
229
90
242
215
41
241
208
19
241
208
19
241
208
19
219
190
12
214
175
14
181
146
13
6
6
6
2
2
6
2
2
6
2
2
6
2
2
6
26
26
26
94
94
94
42
42
42
14
14
14
0
0
0
0
0
0
0
0
0
0
0
0
6
6
6
219
190
12
252
252
23
171
190
15
5
17
5
0
0
0
0
0
0
0
0
0
0
0
0
0
0
0
26
28
5
186
186
17
252
252
23
186
186
17
3
0
1
0
0
0
0
0
0
0
0
0
0
0
0
0
0
0
0
0
0
0
0
0
0
0
0
0
0
0
0
0
0
0
0
0
0
0
0
0
0
0
0
0
0
0
0
0
0
0
0
0
0
0
0
0
0
0
0
0
0
0
0
0
0
0
0
0
0
0
0
0
0
0
0
0
0
0
0
0
0
0
0
0
0
0
0
0
0
0
0
0
0
0
0
0
0
0
0
10
10
10
30
30
30
78
78
78
50
50
50
104
69
6
192
133
9
216
158
10
236
178
12
237
186
11
232
195
16
241
208
19
246
218
45
242
215
41
241
208
19
241
208
19
241
208
19
205
150
9
200
144
11
216
158
10
151
117
15
2
2
6
2
2
6
2
2
6
2
2
6
2
2
6
6
6
6
90
90
90
42
42
42
5
1
2
0
0
0
0
0
0
0
0
0
0
0
0
113
104
8
252
252
23
186
186
17
5
1
2
0
0
0
0
0
0
0
0
0
0
0
0
0
0
0
0
0
0
40
33
4
176
150
24
252
252
23
252
252
23
113
104
8
0
0
0
0
0
0
0
0
0
0
0
0
0
0
0
0
0
0
0
0
0
0
0
0
0
0
0
0
0
0
0
0
0
0
0
0
0
0
0
0
0
0
0
0
0
0
0
0
0
0
0
0
0
0
0
0
0
0
0
0
0
0
0
0
0
0
0
0
0
0
0
0
0
0
0
0
0
0
0
0
0
0
0
0
0
0
0
0
0
0
0
0
0
0
0
0
10
10
10
30
30
30
78
78
78
46
46
46
22
22
22
136
101
11
209
162
10
239
182
13
237
186
11
234
196
14
241
208
19
241
208
19
241
208
19
241
208
19
209
162
10
185
133
11
210
150
10
216
158
10
210
150
10
97
70
12
2
2
6
6
6
6
54
54
54
14
14
14
2
2
6
2
2
6
22
22
22
0
0
0
0
0
0
0
0
0
0
0
0
0
0
0
6
6
6
240
240
22
246
246
22
26
28
5
0
0
0
0
0
0
0
0
0
0
0
0
0
0
0
26
28
5
154
157
31
246
246
22
252
252
23
240
240
22
103
106
9
6
6
6
0
0
0
0
0
0
0
0
0
0
0
0
0
0
0
0
0
0
0
0
0
0
0
0
0
0
0
0
0
0
0
0
0
0
0
0
0
0
0
0
0
0
0
0
0
0
0
0
0
0
0
0
0
0
0
0
0
0
0
0
0
0
0
0
0
0
0
0
0
0
0
0
0
0
0
0
0
0
0
0
0
0
0
0
0
0
0
0
0
0
0
0
0
0
0
0
10
10
10
34
34
34
78
78
78
50
50
50
6
6
6
93
80
45
136
101
11
181
146
13
219
190
12
232
195
16
232
195
16
214
175
14
181
146
13
180
123
7
192
133
9
210
150
10
216
158
10
211
166
31
185
159
85
101
98
89
2
2
6
2
2
6
78
78
78
106
106
106
26
26
26
0
0
0
0
0
0
20
2
4
34
5
8
0
0
0
0
0
0
0
0
0
62
59
6
252
252
23
171
190
15
0
0
0
0
0
0
0
0
0
0
0
0
16
24
9
143
113
18
240
240
22
252
252
23
240
240
22
113
104
8
13
3
2
0
0
0
0
0
0
0
0
0
0
0
0
0
0
0
0
0
0
0
0
0
0
0
0
0
0
0
0
0
0
0
0
0
0
0
0
0
0
0
0
0
0
0
0
0
0
0
0
0
0
0
0
0
0
0
0
0
0
0
0
0
0
0
0
0
0
0
0
0
0
0
0
0
0
0
0
0
0
0
0
0
0
0
0
0
0
0
0
0
0
0
0
0
0
0
0
0
0
0
0
0
0
10
10
10
38
38
38
86
86
86
50
50
50
6
6
6
123
123
123
171
153
86
156
107
11
180
123
7
205
150
9
181
146
13
197
138
11
200
144
11
206
145
10
206
145
10
197
138
11
185
159
85
195
195
195
198
198
198
170
170
170
14
14
14
2
2
6
10
10
10
0
0
0
0
0
0
0
0
0
34
5
8
247
21
22
181
17
16
0
0
0
0
0
0
0
0
0
103
106
9
252
252
23
113
104
8
0
0
0
0
0
0
6
6
6
113
104
8
240
240
22
252
252
23
240
240
22
143
113
18
16
24
9
0
0
0
0
0
0
6
6
6
16
24
9
6
6
6
0
0
0
0
0
0
0
0
0
0
0
0
0
0
0
0
0
0
0
0
0
0
0
0
0
0
0
0
0
0
0
0
0
0
0
0
0
0
0
0
0
0
0
0
0
0
0
0
0
0
0
0
0
0
0
0
0
0
0
0
0
0
0
0
0
0
0
0
0
0
0
0
0
0
0
0
0
0
0
0
0
0
0
0
0
0
0
0
0
0
6
6
6
18
18
18
50
50
50
106
106
106
26
26
26
10
10
10
123
123
123
190
190
190
171
153
86
156
107
11
197
138
11
200
144
11
197
138
11
192
133
9
180
123
7
181
141
41
183
180
170
187
187
187
198
198
198
220
220
220
198
198
198
42
42
42
0
0
0
0
0
0
0
0
0
0
0
0
0
0
0
0
0
0
181
17
16
250
21
22
96
11
8
0
0
0
0
0
0
113
104
8
252
252
23
103
106
9
5
1
2
103
106
9
240
240
22
252
252
23
246
246
22
154
157
31
26
28
5
0
0
0
0
0
0
0
0
0
0
0
0
113
104
8
252
252
23
103
106
9
0
0
0
0
0
0
0
0
0
0
0
0
0
0
0
0
0
0
0
0
0
0
0
0
0
0
0
0
0
0
0
0
0
0
0
0
0
0
0
0
0
0
0
0
0
0
0
0
0
0
0
0
0
0
0
0
0
0
0
0
0
0
0
0
0
0
0
0
0
0
0
0
0
0
0
0
0
0
0
0
0
0
0
0
0
0
0
0
0
0
10
10
10
34
34
34
74
74
74
74
74
74
2
2
6
6
6
6
158
158
158
198
198
198
190
190
190
158
158
158
154
124
54
156
107
11
156
107
11
169
133
54
171
153
86
187
187
187
190
190
190
210
210
210
238
238
238
183
180
170
50
50
50
0
0
0
0
0
0
0
0
0
0
0
0
0
0
0
0
0
0
0
0
0
47
4
13
250
21
22
247
21
22
5
1
2
0
0
0
88
83
7
252
252
23
186
186
17
241
208
19
252
252
23
250
250
23
154
157
31
40
33
4
0
0
0
0
0
0
0
0
0
0
0
0
0
0
0
0
0
0
154
157
31
252
252
23
68
72
4
0
0
0
0
0
0
0
0
0
0
0
0
0
0
0
0
0
0
0
0
0
0
0
0
0
0
0
0
0
0
0
0
0
0
0
0
0
0
0
0
0
0
0
0
0
0
0
0
0
0
0
0
0
0
0
0
0
0
0
0
0
0
0
0
0
0
0
0
0
0
0
0
0
0
0
0
0
0
0
0
0
0
0
0
0
0
0
10
10
10
22
22
22
54
54
54
94
94
94
18
18
18
2
2
6
46
46
46
234
234
234
220
220
220
190
190
190
190
190
190
190
190
190
187
187
187
187
187
187
190
190
190
190
190
190
195
195
195
210
210
210
187
187
187
66
66
66
0
0
0
0
0
0
0
0
0
0
0
0
0
0
0
0
0
0
0
0
0
0
0
0
0
0
0
0
0
0
181
17
16
250
21
22
96
11
8
0
0
0
40
33
4
252
252
23
252
252
23
252
252
23
186
186
17
40
39
11
0
0
0
0
0
0
0
0
0
0
0
0
0
0
0
0
0
0
0
0
0
6
6
6
240
240
22
246
246
22
16
24
9
0
0
0
0
0
0
0
0
0
0
0
0
0
0
0
0
0
0
0
0
0
0
0
0
0
0
0
0
0
0
0
0
0
0
0
0
0
0
0
0
0
0
0
0
0
0
0
0
0
0
0
0
0
0
0
0
0
0
0
0
0
0
0
0
0
0
0
0
0
0
0
0
0
0
0
0
0
0
0
0
0
0
0
0
6
6
6
18
18
18
46
46
46
90
90
90
46
46
46
18
18
18
6
6
6
187
187
187
253
253
253
246
246
246
210
210
210
190
190
190
190
190
190
190
190
190
190
190
190
190
190
190
198
198
198
187
187
187
86
86
86
0
0
0
0
0
0
0
0
0
0
0
0
0
0
0
0
0
0
0
0
0
0
0
0
0
0
0
0
0
0
0
0
0
0
0
0
34
5
8
247
21
22
247
21
22
13
3
2
0
0
0
186
186
17
252
252
23
143
113
18
0
0
0
0
0
0
0
0
0
0
0
0
0
0
0
0
0
0
0
0
0
0
0
0
0
0
0
103
106
9
252
252
23
176
150
24
0
0
0
0
0
0
0
0
0
0
0
0
0
0
0
0
0
0
0
0
0
0
0
0
0
0
0
0
0
0
0
0
0
0
0
0
0
0
0
0
0
0
0
0
0
0
0
0
0
0
0
0
0
0
0
0
0
0
0
0
0
0
0
0
0
0
0
0
0
0
0
0
0
0
0
0
0
0
0
0
0
0
0
0
6
6
6
14
14
14
38
38
38
74
74
74
66
66
66
2
2
6
6
6
6
90
90
90
250
250
250
253
253
253
253
253
253
238
238
238
198
198
198
190
190
190
190
190
190
195
195
195
220
220
220
123
123
123
0
0
0
0
0
0
0
0
0
0
0
0
0
0
0
0
0
0
0
0
0
0
0
0
0
0
0
0
0
0
0
0
0
0
0
0
0
0
0
0
0
0
0
0
0
155
20
32
250
21
22
133
11
12
0
0
0
60
51
13
250
250
23
240
240
22
62
59
6
0
0
0
0
0
0
0
0
0
0
0
0
0
0
0
0
0
0
0
0
0
60
51
13
240
240
22
246
246
22
40
39
11
0
0
0
0
0
0
0
0
0
0
0
0
0
0
0
0
0
0
0
0
0
0
0
0
0
0
0
0
0
0
0
0
0
0
0
0
0
0
0
0
0
0
0
0
0
0
0
0
0
0
0
0
0
0
0
0
0
0
0
0
0
0
0
0
0
0
0
0
0
0
0
0
0
0
0
0
0
0
0
0
0
0
0
0
14
14
14
34
34
34
66
66
66
78
78
78
6
6
6
2
2
6
18
18
18
220
220
220
253
253
253
253
253
253
253
253
253
253
253
253
246
246
246
226
226
226
231
231
231
246
246
246
253
253
253
198
198
198
0
0
0
4
0
0
181
17
16
133
11
12
81
8
19
20
2
4
0
0
0
0
0
0
0
0
0
0
0
0
0
0
0
0
0
0
0
0
0
0
0
0
0
0
0
22
2
7
247
21
22
247
21
22
20
2
4
0
0
0
103
106
9
252
252
23
246
246
22
143
113
18
16
24
9
0
0
0
0
0
0
0
0
0
16
24
9
113
104
8
240
240
22
252
252
23
103
106
9
0
0
0
0
0
0
0
0
0
23
3
9
88
9
46
0
0
0
0
0
0
0
0
0
0
0
0
0
0
0
0
0
0
0
0
0
0
0
0
0
0
0
0
0
0
0
0
0
0
0
0
0
0
0
0
0
0
0
0
0
0
0
0
0
0
0
0
0
0
0
0
0
0
0
0
0
0
0
0
0
0
0
0
0
10
10
10
26
26
26
58
58
58
90
90
90
18
18
18
2
2
6
2
2
6
106
106
106
253
253
253
253
253
253
253
253
253
253
253
253
253
253
253
253
253
253
250
250
250
253
253
253
253
253
253
246
246
246
220
220
220
106
106
106
0
0
0
96
11
8
250
21
22
250
21
22
250
21
22
181
17
16
133
11
12
96
11
8
28
4
9
0
0
0
0
0
0
0
0
0
0
0
0
0
0
0
0
0
0
133
11
12
250
21
22
133
11
12
0
0
0
0
0
0
88
83
7
240
240
22
252
252
23
250
250
23
219
190
12
186
186
17
219
190
12
246
246
22
252
252
23
246
246
22
113
104
8
0
0
0
0
0
0
8
1
6
132
21
101
246
22
183
246
22
183
37
3
15
0
0
0
0
0
0
0
0
0
0
0
0
0
0
0
0
0
0
0
0
0
0
0
0
0
0
0
0
0
0
0
0
0
0
0
0
0
0
0
0
0
0
0
0
0
0
0
0
0
0
0
0
0
0
0
0
0
0
0
0
0
0
0
6
6
6
22
22
22
50
50
50
90
90
90
26
26
26
2
2
6
2
2
6
14
14
14
195
195
195
250
250
250
253
253
253
253
253
253
253
253
253
253
253
253
253
253
253
253
253
253
253
253
253
253
253
253
223
223
223
123
123
123
210
210
210
0
0
0
3
0
1
181
17
16
250
21
22
247
21
22
250
21
22
250
21
22
250
21
22
250
21
22
247
21
22
181
17
16
96
11
8
47
4
13
2
0
0
0
0
0
13
3
2
247
21
22
247
21
22
34
5
8
0
0
0
0
0
0
26
28
5
141
132
35
241
208
19
252
252
23
252
252
23
252
252
23
240
240
22
141
132
35
42
35
1
0
0
0
8
0
4
101
10
52
246
22
183
251
22
187
246
22
183
137
18
97
23
3
9
0
0
0
0
0
0
0
0
0
0
0
0
0
0
0
0
0
0
0
0
0
0
0
0
0
0
0
0
0
0
0
0
0
0
0
0
0
0
0
0
0
0
0
0
0
0
0
0
0
0
0
0
0
0
0
0
0
0
0
0
6
6
6
14
14
14
38
38
38
82
82
82
34
34
34
2
2
6
2
2
6
2
2
6
42
42
42
195
195
195
246
246
246
253
253
253
253
253
253
253
253
253
253
253
253
250
250
250
242
242
242
242
242
242
250
250
250
198
198
198
0
0
0
210
210
210
123
123
123
0
0
0
81
8
19
250
21
22
181
17
16
20
2
4
81
8
19
133
11
12
181
17
16
247
21
22
250
21
22
250
21
22
250
21
22
247
21
22
181
17
16
114
18
11
181
17
16
250
21
22
181
17
16
0
0
0
0
0
0
0
0
0
0
0
0
0
0
0
16
24
9
40
33
4
16
24
9
0
0
0
0
0
0
3
0
1
88
9
46
246
22
183
251
22
187
248
22
185
137
18
97
37
3
15
0
0
0
0
0
0
0
0
0
0
0
0
0
0
0
0
0
0
0
0
0
0
0
0
0
0
0
0
0
0
0
0
0
0
0
0
0
0
0
0
0
0
0
0
0
0
0
0
0
0
0
0
0
0
0
0
0
0
0
0
0
0
0
0
0
0
10
10
10
26
26
26
62
62
62
66
66
66
2
2
6
2
2
6
2
2
6
6
6
6
70
70
70
170
170
170
210
210
210
234
234
234
246
246
246
250
250
250
250
250
250
238
238
238
226
226
226
231
231
231
238
238
238
170
170
170
0
0
0
106
106
106
220
220
220
0
0
0
0
0
0
181
17
16
250
21
22
96
11
8
0
0
0
0
0
0
0
0
0
13
3
2
76
7
22
133
11
12
181
17
16
247
21
22
250
21
22
250
21
22
250
21
22
250
21
22
250
21
22
47
4
13
0
0
0
0
0
0
0
0
0
0
0
0
0
0
0
0
0
0
0
0
0
0
0
0
88
9
46
246
22
183
251
22
187
251
22
187
137
18
97
48
7
34
0
0
0
0
0
0
0
0
0
0
0
0
0
0
0
0
0
0
0
0
0
0
0
0
0
0
0
0
0
0
0
0
0
0
0
0
0
0
0
0
0
0
0
0
0
0
0
0
0
0
0
0
0
0
0
0
0
0
0
0
0
0
0
0
0
0
0
0
0
0
0
0
14
14
14
42
42
42
82
82
82
18
18
18
2
2
6
2
2
6
2
2
6
10
10
10
94
94
94
187
187
187
220
220
220
242
242
242
250
250
250
253
253
253
253
253
253
250
250
250
234
234
234
253
253
253
253
253
253
123
123
123
0
0
0
0
0
0
210
210
210
123
123
123
0
0
0
47
4
13
250
21
22
247
21
22
10
1
3
0
0
0
0
0
0
0
0
0
0
0
0
0
0
0
0
0
0
4
0
0
47
4
13
114
18
11
181
17
16
247
21
22
250
21
22
181
17
16
0
0
0
0
0
0
0
0
0
0
0
0
0
0
0
0
0
0
48
7
34
137
18
97
251
22
187
251
22
187
248
22
185
246
22
183
0
0
0
0
0
0
0
0
0
0
0
0
0
0
0
0
0
0
0
0
0
0
0
0
0
0
0
0
0
0
0
0
0
0
0
0
0
0
0
0
0
0
0
0
0
0
0
0
0
0
0
0
0
0
0
0
0
0
0
0
0
0
0
0
0
0
0
0
0
0
0
0
0
0
0
6
6
6
22
22
22
54
54
54
70
70
70
2
2
6
2
2
6
10
10
10
2
2
6
22
22
22
170
170
170
231
231
231
250
250
250
253
253
253
253
253
253
253
253
253
253
253
253
250
250
250
242
242
242
253
253
253
253
253
253
78
78
78
0
0
0
0
0
0
94
94
94
226
226
226
22
22
22
0
0
0
181
17
16
250
21
22
114
18
11
0
0
0
0
0
0
0
0
0
0
0
0
0
0
0
0
0
0
0
0
0
0
0
0
0
0
0
0
0
0
0
0
0
34
5
8
96
11
8
20
2
4
0
0
0
0
0
0
0
0
0
48
7
34
137
18
97
251
22
187
251
22
187
246
22
183
88
9
46
137
18
97
251
22
187
88
9
46
0
0
0
0
0
0
0
0
0
0
0
0
0
0
0
0
0
0
0
0
0
0
0
0
0
0
0
0
0
0
0
0
0
0
0
0
0
0
0
0
0
0
0
0
0
0
0
0
0
0
0
0
0
0
0
0
0
0
0
0
0
0
0
0
0
0
0
0
0
0
0
0
10
10
10
30
30
30
74
74
74
50
50
50
2
2
6
26
26
26
26
26
26
2
2
6
106
106
106
238
238
238
253
253
253
253
253
253
253
253
253
253
253
253
253
253
253
253
253
253
253
253
253
253
253
253
253
253
253
242
242
242
0
0
0
0
0
0
0
0
0
0
0
0
198
198
198
158
158
158
0
0
0
34
5
8
247
21
22
247
21
22
20
2
4
0
0
0
0
0
0
0
0
0
0
0
0
0
0
0
0
0
0
0
0
0
0
0
0
0
0
0
0
0
0
0
0
0
0
0
0
0
0
0
0
0
0
0
0
0
88
9
46
248
22
185
251
22
187
246
22
183
101
10
52
3
0
1
0
0
0
23
3
9
246
22
183
246
22
183
5
1
2
0
0
0
0
0
0
0
0
0
0
0
0
0
0
0
0
0
0
0
0
0
0
0
0
0
0
0
0
0
0
0
0
0
0
0
0
0
0
0
0
0
0
0
0
0
0
0
0
0
0
0
0
0
0
0
0
0
0
0
0
0
0
0
0
0
0
0
0
0
14
14
14
42
42
42
90
90
90
22
22
22
2
2
6
42
42
42
2
2
6
18
18
18
220
220
220
253
253
253
253
253
253
253
253
253
253
253
253
253
253
253
253
253
253
253
253
253
253
253
253
253
253
253
253
253
253
223
223
223
0
0
0
0
0
0
0
0
0
0
0
0
78
78
78
231
231
231
38
38
38
0
0
0
133
11
12
250
21
22
133
11
12
0
0
0
0
0
0
0
0
0
0
0
0
0
0
0
0
0
0
0
0
0
0
0
0
0
0
0
0
0
0
0
0
0
0
0
0
5
17
5
5
17
5
0
0
0
8
1
6
246
22
183
132
21
101
8
1
6
0
0
0
0
0
0
0
0
0
0
0
0
132
21
101
251
22
187
101
10
52
0
0
0
0
0
0
0
0
0
0
0
0
0
0
0
0
0
0
0
0
0
0
0
0
0
0
0
0
0
0
0
0
0
0
0
0
0
0
0
0
0
0
0
0
0
0
0
0
0
0
0
0
0
0
0
0
0
0
0
0
0
0
0
0
0
0
6
6
6
18
18
18
54
54
54
82
82
82
2
2
6
26
26
26
22
22
22
2
2
6
123
123
123
253
253
253
253
253
253
253
253
253
253
253
253
253
253
253
253
253
253
253
253
253
253
253
253
253
253
253
253
253
253
253
253
253
198
198
198
0
0
0
0
0
0
0
0
0
0
0
0
0
0
0
190
190
190
170
170
170
0
0
0
20
2
4
247
21
22
247
21
22
28
4
9
0
0
0
0
0
0
0
0
0
0
0
0
0
0
0
0
0
0
0
0
0
0
0
0
0
0
0
0
0
0
0
0
0
63
98
15
21
209
25
18
57
14
0
0
0
0
0
1
0
0
0
0
0
0
0
0
0
0
0
0
0
0
0
0
0
0
8
1
6
246
22
183
246
22
183
8
1
6
0
0
0
0
0
0
0
0
0
0
0
0
0
0
0
0
0
0
0
0
0
0
0
0
0
0
0
0
0
0
0
0
0
0
0
0
0
0
0
0
0
0
0
0
0
0
0
0
0
0
0
0
0
0
0
0
0
0
0
0
0
0
0
10
10
10
30
30
30
74
74
74
58
58
58
2
2
6
42
42
42
2
2
6
22
22
22
231
231
231
253
253
253
253
253
253
253
253
253
253
253
253
253
253
253
253
253
253
253
253
253
253
253
253
250
250
250
253
253
253
253
253
253
170
170
170
0
0
0
0
0
0
0
0
0
0
0
0
0
0
0
66
66
66
234
234
234
54
54
54
0
0
0
133
11
12
250
21
22
155
20
32
0
0
0
0
0
0
0
0
0
0
0
0
0
0
0
0
0
0
0
0
0
0
0
0
0
0
0
0
0
0
0
0
0
21
209
25
21
209
25
5
17
5
0
0
0
0
0
0
0
0
0
0
0
0
0
0
0
0
0
0
0
0
0
0
0
0
0
0
0
101
10
52
251
22
187
132
21
101
0
0
0
0
0
0
0
0
0
0
0
0
0
0
0
0
0
0
0
0
0
0
0
0
0
0
0
0
0
0
0
0
0
0
0
0
0
0
0
0
0
0
0
0
0
0
0
0
0
0
0
0
0
0
0
0
0
0
0
0
6
6
6
14
14
14
42
42
42
90
90
90
18
18
18
18
18
18
26
26
26
2
2
6
123
123
123
253
253
253
253
253
253
253
253
253
253
253
253
253
253
253
253
253
253
253
253
253
253
253
253
250
250
250
238
238
238
253
253
253
253
253
253
123
123
123
0
0
0
0
0
0
0
0
0
0
0
0
0
0
0
0
0
0
183
180
170
187
187
187
0
0
0
13
3
2
247
21
22
247
21
22
47
4
13
0
0
0
0
0
0
0
0
0
0
0
0
0
0
0
0
0
0
0
0
0
0
0
0
0
0
0
16
24
9
22
212
26
21
209
25
0
0
0
0
0
0
0
0
0
0
0
0
0
0
0
0
0
0
0
0
0
0
0
0
0
0
0
0
0
0
3
0
1
246
22
183
246
22
183
23
3
9
0
0
0
0
0
0
0
0
0
0
0
0
0
0
0
0
0
0
0
0
0
0
0
0
0
0
0
0
0
0
0
0
0
0
0
0
0
0
0
0
0
0
0
0
0
0
0
0
0
0
0
0
0
0
0
0
0
10
10
10
26
26
26
66
66
66
82
82
82
2
2
6
38
38
38
6
6
6
14
14
14
210
210
210
253
253
253
253
253
253
253
253
253
253
253
253
253
253
253
253
253
253
253
253
253
253
253
253
246
246
246
242
242
242
253
253
253
253
253
253
78
78
78
0
0
0
0
0
0
0
0
0
0
0
0
0
0
0
0
0
0
50
50
50
234
234
234
74
74
74
0
0
0
96
11
8
181
17
16
47
4
13
0
0
0
0
0
0
0
0
0
0
0
0
0
0
0
0
0
0
0
0
0
0
0
0
0
0
0
18
57
14
22
212
26
18
57
14
0
0
0
0
0
0
0
0
0
0
0
0
0
0
0
0
0
0
0
0
0
0
0
0
0
0
0
0
0
0
0
0
0
88
9
46
251
22
187
137
18
97
0
0
0
0
0
0
0
0
0
0
0
0
0
0
0
0
0
0
0
0
0
0
0
0
0
0
0
0
0
0
0
0
0
0
0
0
0
0
0
0
0
0
0
0
0
0
0
0
0
0
0
0
0
0
6
6
6
14
14
14
42
42
42
90
90
90
26
26
26
6
6
6
42
42
42
2
2
6
74
74
74
250
250
250
253
253
253
253
253
253
253
253
253
253
253
253
253
253
253
253
253
253
253
253
253
253
253
253
242
242
242
242
242
242
253
253
253
242
242
242
0
0
0
0
0
0
0
0
0
0
0
0
0
0
0
0
0
0
0
0
0
0
0
0
170
170
170
190
190
190
0
0
0
3
0
1
0
0
0
0
0
0
0
0
0
0
0
0
0
0
0
0
0
0
0
0
0
0
0
0
0
0
0
0
0
0
0
0
0
21
209
25
22
212
26
16
24
9
0
0
0
0
0
0
0
0
0
0
0
0
0
0
0
0
0
0
0
0
0
0
0
0
0
0
0
0
0
0
0
0
0
0
0
0
246
22
183
246
22
183
37
3
15
0
0
0
0
0
0
0
0
0
0
0
0
0
0
0
0
0
0
0
0
0
0
0
0
0
0
0
0
0
0
0
0
0
0
0
0
0
0
0
0
0
0
0
0
0
0
0
0
0
0
0
10
10
10
26
26
26
66
66
66
82
82
82
2
2
6
22
22
22
18
18
18
2
2
6
158
158
158
253
253
253
253
253
253
253
253
253
253
253
253
253
253
253
253
253
253
253
253
253
253
253
253
253
253
253
234
234
234
242
242
242
253
253
253
223
223
223
0
0
0
0
0
0
0
0
0
0
0
0
0
0
0
0
0
0
0
0
0
0
0
0
38
38
38
233
233
233
90
90
90
0
0
0
0
0
0
5
17
5
16
24
9
0
0
0
0
0
0
0
0
0
0
0
0
0
0
0
0
0
0
0
0
0
5
17
5
21
209
25
21
209
25
0
0
0
0
0
0
0
0
0
0
0
0
0
0
0
0
0
0
0
0
0
0
0
0
0
0
0
0
0
0
0
0
0
0
0
0
0
0
0
48
7
34
251
22
187
137
18
97
0
0
0
0
0
0
0
0
0
0
0
0
0
0
0
0
0
0
0
0
0
0
0
0
0
0
0
0
0
0
0
0
0
0
0
0
0
0
0
0
0
0
0
0
0
0
0
0
6
6
6
18
18
18
46
46
46
86
86
86
18
18
18
2
2
6
34
34
34
10
10
10
6
6
6
210
210
210
253
253
253
253
253
253
253
253
253
253
253
253
253
253
253
253
253
253
253
253
253
253
253
253
253
253
253
234
234
234
242
242
242
253
253
253
198
198
198
0
0
0
0
0
0
0
0
0
0
0
0
0
0
0
0
0
0
0
0
0
0
0
0
0
0
0
158
158
158
198
198
198
0
0
0
0
0
0
63
98
15
22
212
26
21
209
25
63
98
15
18
57
14
0
0
0
0
0
0
0
0
0
0
0
0
18
57
14
22
212
26
63
98
15
0
0
0
0
0
0
0
0
0
0
0
0
0
0
0
0
0
0
0
0
0
0
0
0
0
0
0
0
0
0
0
0
0
0
0
0
0
0
0
0
0
0
137
18
97
248
22
185
48
7
34
0
0
0
0
0
0
0
0
0
0
0
0
0
0
0
0
0
0
0
0
0
0
0
0
0
0
0
0
0
0
0
0
0
0
0
0
0
0
0
0
0
0
0
0
0
10
10
10
26
26
26
66
66
66
62
62
62
2
2
6
2
2
6
38
38
38
10
10
10
26
26
26
238
238
238
253
253
253
253
253
253
253
253
253
253
253
253
253
253
253
253
253
253
253
253
253
253
253
253
253
253
253
231
231
231
238
238
238
253
253
253
170
170
170
0
0
0
0
0
0
0
0
0
0
0
0
0
0
0
0
0
0
0
0
0
0
0
0
0
0
0
22
22
22
231
231
231
106
106
106
0
0
0
18
57
14
21
209
25
22
212
26
22
212
26
22
212
26
21
209
25
63
98
15
18
57
14
0
0
1
21
209
25
22
212
26
18
57
14
0
0
0
0
0
0
0
0
0
0
0
0
0
0
0
0
0
0
0
0
0
0
0
0
0
0
0
0
0
0
0
0
0
0
0
0
0
0
0
0
0
0
48
7
34
246
22
183
101
10
52
0
0
0
0
0
0
0
0
0
0
0
0
0
0
0
0
0
0
0
0
0
0
0
0
0
0
0
0
0
0
0
0
0
0
0
0
0
0
0
0
0
0
0
0
0
10
10
10
38
38
38
78
78
78
6
6
6
2
2
6
2
2
6
46
46
46
14
14
14
42
42
42
246
246
246
253
253
253
253
253
253
253
253
253
253
253
253
253
253
253
253
253
253
253
253
253
253
253
253
253
253
253
231
231
231
242
242
242
253
253
253
123
123
123
0
0
0
0
0
0
0
0
0
0
0
0
0
0
0
0
0
0
0
0
0
0
0
0
0
0
0
0
0
0
158
158
158
210
210
210
0
0
0
0
0
0
0
0
0
5
17
5
18
57
14
21
209
25
21
209
25
22
212
26
22
212
26
21
209
25
21
209
25
21
209
25
5
17
5
0
0
0
0
0
0
0
0
0
0
0
0
0
0
0
0
0
0
0
0
0
0
0
0
0
0
0
0
0
0
0
0
0
0
0
0
0
0
0
0
0
0
0
0
0
23
3
9
0
0
0
0
0
0
0
0
0
0
0
0
0
0
0
0
0
0
0
0
0
0
0
0
0
0
0
0
0
0
0
0
0
0
0
0
0
0
0
0
0
0
0
0
0
6
6
6
18
18
18
50
50
50
74
74
74
2
2
6
2
2
6
14
14
14
70
70
70
34
34
34
62
62
62
250
250
250
253
253
253
253
253
253
253
253
253
253
253
253
253
253
253
253
253
253
253
253
253
253
253
253
253
253
253
231
231
231
246
246
246
253
253
253
198
198
198
0
0
0
0
0
0
0
0
0
0
0
0
0
0
0
0
0
0
0
0
0
0
0
0
0
0
0
0
0
0
0
0
0
226
226
226
123
123
123
0
0
0
0
0
0
0
0
0
0
0
0
0
0
0
5
17
5
18
57
14
63
98
15
21
209
25
22
212
26
22
212
26
21
209
25
21
209
25
18
57
14
5
17
5
0
0
0
0
0
0
0
0
0
0
0
0
0
0
0
0
0
0
0
0
0
0
0
0
0
0
0
0
0
0
0
0
0
0
0
0
0
0
0
0
0
0
0
0
0
0
0
0
0
0
0
0
0
0
0
0
0
0
0
0
0
0
0
0
0
0
0
0
0
0
0
0
0
0
0
0
0
0
0
0
0
0
0
0
6
6
6
18
18
18
54
54
54
62
62
62
2
2
6
2
2
6
2
2
6
30
30
30
46
46
46
70
70
70
250
250
250
253
253
253
253
253
253
253
253
253
253
253
253
253
253
253
253
253
253
253
253
253
253
253
253
253
253
253
231
231
231
246
246
246
253
253
253
251
251
251
106
106
106
0
0
0
0
0
0
0
0
0
0
0
0
0
0
0
0
0
0
0
0
0
0
0
0
0
0
0
0
0
0
123
123
123
223
223
223
0
0
0
0
0
0
0
0
0
0
0
0
0
0
0
0
0
0
0
0
0
0
0
0
63
98
15
22
212
26
21
209
25
21
209
25
22
212
26
22
212
26
21
209
25
21
209
25
18
57
14
5
17
5
0
0
0
0
0
0
0
0
0
0
0
0
0
0
0
0
0
0
0
0
0
0
0
0
0
0
0
0
0
0
0
0
0
0
0
0
0
0
0
0
0
0
0
0
0
0
0
0
0
0
0
0
0
0
0
0
0
0
0
0
0
0
0
0
0
0
0
0
0
0
0
0
0
0
0
6
6
6
22
22
22
58
58
58
62
62
62
2
2
6
2
2
6
2
2
6
2
2
6
30
30
30
78
78
78
250
250
250
253
253
253
253
253
253
253
253
253
253
253
253
253
253
253
253
253
253
253
253
253
253
253
253
253
253
253
231
231
231
246
246
246
253
253
253
253
253
253
210
210
210
0
0
0
0
0
0
0
0
0
0
0
0
0
0
0
0
0
0
0
0
0
0
0
0
0
0
0
0
0
0
0
0
0
220
220
220
158
158
158
0
0
0
0
0
0
0
0
0
0
0
0
0
0
0
0
0
0
0
0
0
21
209
25
21
209
25
5
17
5
0
0
0
18
57
14
63
98
15
21
209
25
22
212
26
22
212
26
22
212
26
21
209
25
0
0
1
0
0
0
0
0
0
0
0
0
0
0
0
0
0
0
0
0
0
0
0
0
0
0
0
0
0
0
0
0
0
0
0
0
0
0
0
0
0
0
0
0
0
0
0
0
0
0
0
0
0
0
0
0
0
0
0
0
0
0
0
0
0
0
0
0
0
0
0
0
6
6
6
26
26
26
62
62
62
106
106
106
73
63
16
185
133
11
209
162
10
113
104
8
6
6
6
62
62
62
238
238
238
253
253
253
253
253
253
253
253
253
253
253
253
253
253
253
253
253
253
253
253
253
253
253
253
253
253
253
231
231
231
246
246
246
253
253
253
253
253
253
253
253
253
123
123
123
0
0
0
0
0
0
0
0
0
0
0
0
0
0
0
0
0
0
0
0
0
0
0
0
0
0
0
0
0
0
123
123
123
231
231
231
22
22
22
0
0
0
0
0
0
0
0
0
0
0
0
0
0
0
16
24
9
22
212
26
21
209
25
0
0
0
0
0
0
0
0
0
0
0
0
0
0
0
16
24
9
18
57
14
21
209
25
21
209
25
0
0
0
0
0
0
0
0
0
0
0
0
0
0
0
0
0
0
0
0
0
0
0
0
0
0
0
0
0
0
0
0
0
0
0
0
0
0
0
0
0
0
0
0
0
0
0
0
0
0
0
0
0
0
0
0
0
0
0
0
0
0
0
6
6
6
10
10
10
10
10
10
18
18
18
38
38
38
78
78
78
133
128
107
216
158
10
242
186
14
246
190
14
246
190
14
151
117
15
10
10
10
90
90
90
238
238
238
253
253
253
253
253
253
253
253
253
253
253
253
253
253
253
253
253
253
253
253
253
253
253
253
231
231
231
250
250
250
253
253
253
253
253
253
253
253
253
220
220
220
0
0
0
0
0
0
0
0
0
0
0
0
0
0
0
0
0
0
0
0
0
0
0
0
0
0
0
0
0
0
0
0
0
183
180
170
154
124
54
0
0
0
0
0
0
0
0
0
0
0
0
0
0
0
18
57
14
22
212
26
18
57
14
0
0
0
0
0
0
0
0
0
0
0
0
0
0
0
0
0
0
0
0
0
0
0
0
5
17
5
0
0
0
0
0
0
0
0
0
0
0
0
0
0
0
0
0
0
0
0
0
0
0
0
0
0
0
0
0
0
0
0
0
0
0
0
0
0
0
0
0
0
0
0
0
0
0
0
0
0
0
0
0
0
0
0
0
6
6
6
14
14
14
22
22
22
30
30
30
38
38
38
50
50
50
70
70
70
106
106
106
181
141
41
226
170
11
242
186
14
246
190
14
246
190
14
246
190
14
151
117
15
6
6
6
74
74
74
226
226
226
253
253
253
253
253
253
253
253
253
253
253
253
253
253
253
253
253
253
253
253
253
231
231
231
250
250
250
253
253
253
253
253
253
253
253
253
253
253
253
123
123
123
0
0
0
0
0
0
0
0
0
0
0
0
0
0
0
0
0
0
0
0
0
0
0
0
0
0
0
0
0
0
97
70
12
219
190
12
40
33
4
0
0
0
0
0
0
0
0
0
0
0
0
21
209
25
22
212
26
16
24
9
0
0
0
0
0
0
0
0
0
0
0
0
0
0
0
0
0
0
0
0
0
0
0
0
0
0
0
0
0
0
0
0
0
0
0
0
0
0
0
0
0
0
0
0
0
0
0
0
0
0
0
0
0
0
0
0
0
0
0
0
0
0
0
0
0
0
0
0
0
0
0
0
0
0
0
0
0
0
0
0
0
6
6
6
18
18
18
38
38
38
58
58
58
78
78
78
86
86
86
106
106
106
123
123
123
167
147
58
210
150
10
230
174
11
246
186
14
246
190
14
246
190
14
246
190
14
237
186
11
97
70
12
2
2
6
46
46
46
198
198
198
253
253
253
253
253
253
253
253
253
253
253
253
253
253
253
253
253
253
234
234
234
242
242
242
253
253
253
253
253
253
253
253
253
253
253
253
226
226
226
14
14
14
0
0
0
0
0
0
0
0
0
0
0
0
0
0
0
0
0
0
0
0
0
0
0
0
0
0
0
0
0
0
200
144
11
151
117
15
0
0
0
0
0
0
0
0
0
5
17
5
21
209
25
21
209
25
0
0
0
0
0
0
0
0
0
0
0
0
0
0
0
0
0
0
0
0
0
0
0
1
2
2
6
0
0
0
0
0
0
0
0
0
0
0
0
0
0
0
0
0
0
0
0
0
0
0
0
0
0
0
0
0
0
0
0
0
0
0
0
0
0
0
0
0
0
0
0
0
0
0
0
0
0
0
0
0
0
0
0
0
14
14
14
38
38
38
70
70
70
154
124
54
181
141
41
200
144
11
197
138
11
197
138
11
216
158
10
226
170
11
242
186
14
246
190
14
246
190
14
246
190
14
246
190
14
246
190
14
226
170
11
40
33
4
2
2
6
22
22
22
158
158
158
250
250
250
253
253
253
253
253
253
253
253
253
253
253
253
253
253
253
253
253
253
253
253
253
253
253
253
253
253
253
253
253
253
253
253
253
158
158
158
0
0
0
0
0
0
0
0
0
0
0
0
0
0
0
0
0
0
0
0
0
0
0
0
0
0
0
0
0
0
84
77
10
218
174
14
42
35
1
0
0
0
0
0
0
18
57
14
22
212
26
63
98
15
0
0
0
0
0
0
0
0
0
0
0
0
0
0
0
13
3
2
66
61
42
38
38
38
6
6
6
0
0
0
0
0
0
0
0
0
0
0
0
0
0
0
0
0
0
0
0
0
0
0
0
0
0
0
0
0
0
0
0
0
0
0
0
0
0
0
0
0
0
0
0
0
0
0
0
0
0
0
0
0
0
6
6
6
22
22
22
54
54
54
154
124
54
216
158
10
226
170
11
230
174
11
226
170
11
226
170
11
236
178
12
242
186
14
246
190
14
246
190
14
246
190
14
246
190
14
246
190
14
246
190
14
234
196
14
181
146
13
10
10
10
2
2
6
6
6
6
123
123
123
242
242
242
253
253
253
253
253
253
253
253
253
253
253
253
253
253
253
253
253
253
253
253
253
253
253
253
253
253
253
253
253
253
234
234
234
34
34
34
0
0
0
0
0
0
0
0
0
0
0
0
0
0
0
0
0
0
0
0
0
0
0
0
0
0
0
0
0
0
185
133
11
152
99
6
0
0
0
0
0
0
21
209
25
22
212
26
18
57
14
0
0
0
0
0
0
0
0
0
0
0
0
136
101
11
209
162
10
98
85
65
6
6
6
0
0
0
0
0
0
0
0
0
0
0
0
0
0
0
0
0
0
0
0
0
0
0
0
0
0
0
0
0
0
0
0
0
0
0
0
0
0
0
0
0
0
0
0
0
0
0
0
0
0
0
0
0
0
0
0
0
10
10
10
30
30
30
70
70
70
181
141
41
226
170
11
239
182
13
242
186
14
242
186
14
246
186
14
246
190
14
246
190
14
246
190
14
246
190
14
246
190
14
246
190
14
246
190
14
246
190
14
246
190
14
232
195
16
104
69
6
2
2
6
2
2
6
2
2
6
66
66
66
220
220
220
253
253
253
253
253
253
253
253
253
253
253
253
253
253
253
253
253
253
253
253
253
253
253
253
253
253
253
253
253
253
158
158
158
0
0
0
0
0
0
0
0
0
0
0
0
0
0
0
0
0
0
0
0
0
0
0
0
0
0
0
0
0
0
62
59
6
205
150
9
42
35
1
0
0
0
18
57
14
21
209
25
0
0
1
0
0
0
0
0
0
104
69
6
205
150
9
179
143
11
62
59
6
0
0
0
0
0
0
0
0
0
0
0
0
0
0
0
0
0
0
0
0
0
0
0
0
0
0
0
0
0
0
0
0
0
0
0
0
0
0
0
0
0
0
0
0
0
0
0
0
0
0
0
0
0
0
0
0
0
0
0
0
0
0
0
6
6
6
30
30
30
78
78
78
181
141
41
226
170
11
239
182
13
246
190
14
246
190
14
246
190
14
246
190
14
246
190
14
246
190
14
246
190
14
246
190
14
246
190
14
246
190
14
246
190
14
246
190
14
234
196
14
209
162
10
16
24
9
2
2
6
2
2
6
2
2
6
38
38
38
220
220
220
253
253
253
253
253
253
253
253
253
253
253
253
253
253
253
253
253
253
253
253
253
253
253
253
253
253
253
239
239
239
46
46
46
0
0
0
0
0
0
0
0
0
0
0
0
0
0
0
0
0
0
0
0
0
0
0
0
0
0
0
0
0
0
163
110
8
163
110
8
0
0
0
0
0
0
0
0
0
0
0
0
62
59
6
185
133
11
200
144
11
84
77
10
0
0
0
0
0
0
0
0
0
0
0
0
0
0
0
0
0
0
0
0
0
0
0
0
0
0
0
0
0
0
0
0
0
0
0
0
0
0
0
0
0
0
0
0
0
0
0
0
0
0
0
0
0
0
0
0
0
0
0
0
0
0
0
0
0
0
0
0
0
10
10
10
30
30
30
78
78
78
169
133
54
226
170
11
239
182
13
246
190
14
246
190
14
246
190
14
246
190
14
246
190
14
246
190
14
246
190
14
246
190
14
246
190
14
246
190
14
246
190
14
246
190
14
246
190
14
234
196
14
136
101
11
2
2
6
2
2
6
2
2
6
2
2
6
78
78
78
250
250
250
253
253
253
253
253
253
253
253
253
253
253
253
253
253
253
253
253
253
253
253
253
253
253
253
253
253
253
183
180
170
0
0
0
0
0
0
0
0
0
0
0
0
0
0
0
0
0
0
0
0
0
0
0
0
0
0
0
0
0
0
42
35
1
216
158
10
73
63
16
0
0
0
60
51
13
163
110
8
185
133
11
104
69
6
0
0
0
0
0
0
0
0
0
0
0
0
0
0
0
0
0
0
0
0
0
0
0
0
0
0
0
0
0
0
0
0
0
0
0
0
0
0
0
0
0
0
0
0
0
0
0
0
0
0
0
0
0
0
0
0
0
0
0
0
0
0
0
0
0
0
0
0
0
0
0
0
0
0
0
10
10
10
30
30
30
74
74
74
169
133
54
216
158
10
236
178
12
246
190
14
246
190
14
246
190
14
246
190
14
246
190
14
246
190
14
246
190
14
246
190
14
246
190
14
246
190
14
246
190
14
246
190
14
246
190
14
234
196
14
219
190
12
60
51
13
2
2
6
2
2
6
2
2
6
22
22
22
238
238
238
253
253
253
253
253
253
253
253
253
253
253
253
253
253
253
253
253
253
253
253
253
253
253
253
253
253
253
246
246
246
66
66
66
0
0
0
0
0
0
0
0
0
0
0
0
0
0
0
0
0
0
0
0
0
0
0
0
0
0
0
0
0
0
163
110
8
179
143
11
180
123
7
185
133
11
104
69
6
0
0
0
0
0
0
0
0
0
0
0
0
0
0
0
0
0
0
0
0
0
0
0
0
0
0
0
0
0
0
0
0
0
0
0
0
0
0
0
0
0
0
0
0
0
0
0
0
0
0
0
0
0
0
0
0
0
0
0
0
0
0
0
0
0
0
0
0
0
0
0
0
0
0
0
0
0
0
0
0
0
6
6
6
26
26
26
70
70
70
169
133
54
216
158
10
236
178
12
246
190
14
246
190
14
246
190
14
246
190
14
246
190
14
246
190
14
246
190
14
246
190
14
246
190
14
246
190
14
246
190
14
246
190
14
246
190
14
246
190
14
234
196
14
181
146
13
22
7
7
2
2
6
2
2
6
46
46
46
246
246
246
253
253
253
253
253
253
253
253
253
253
253
253
253
253
253
253
253
253
253
253
253
253
253
253
253
253
253
253
253
253
187
187
187
0
0
0
0
0
0
0
0
0
0
0
0
0
0
0
0
0
0
0
0
0
0
0
0
0
0
0
0
0
0
136
101
11
242
186
14
136
101
11
0
0
0
0
0
0
0
0
0
0
0
0
0
0
0
0
0
0
0
0
0
0
0
0
0
0
0
0
0
0
0
0
0
0
0
0
0
0
0
0
0
0
0
0
0
0
0
0
0
0
0
0
0
0
0
0
0
0
0
0
0
0
0
0
0
0
0
0
0
0
0
0
0
0
0
0
0
0
0
0
0
0
0
0
0
0
0
6
6
6
26
26
26
70
70
70
169
133
54
210
150
10
236
178
12
246
190
14
246
190
14
246
190
14
246
190
14
246
190
14
246
190
14
246
190
14
246
190
14
246
190
14
246
190
14
246
190
14
246
190
14
246
190
14
246
190
14
246
190
14
232
195
16
113
104
8
34
34
34
106
106
106
220
220
220
253
253
253
253
253
253
253
253
253
253
253
253
253
253
253
253
253
253
253
253
253
253
253
253
253
253
253
253
253
253
253
253
253
250
250
250
86
86
86
0
0
0
0
0
0
0
0
0
0
0
0
0
0
0
0
0
0
0
0
0
0
0
0
0
0
0
179
143
11
239
182
13
30
25
5
0
0
0
0
0
0
0
0
0
0
0
0
0
0
0
0
0
0
0
0
0
0
0
0
0
0
0
0
0
0
0
0
0
0
0
0
0
0
0
0
0
0
0
0
0
0
0
0
0
0
0
0
0
0
0
0
0
0
0
0
0
0
0
0
0
0
0
0
0
0
0
0
0
0
0
0
0
0
0
0
0
0
0
0
0
0
0
10
10
10
30
30
30
78
78
78
169
133
54
210
150
10
236
178
12
246
186
14
246
190
14
246
190
14
246
190
14
246
190
14
246
190
14
246
190
14
246
190
14
246
190
14
246
190
14
246
190
14
246
190
14
246
190
14
246
190
14
246
190
14
234
196
14
214
175
14
183
180
170
253
253
253
253
253
253
253
253
253
253
253
253
253
253
253
253
253
253
253
253
253
253
253
253
253
253
253
253
253
253
253
253
253
253
253
253
253
253
253
253
253
253
198
198
198
0
0
0
0
0
0
0
0
0
0
0
0
0
0
0
0
0
0
0
0
0
0
0
0
0
0
0
216
158
10
205
150
9
0
0
0
0
0
0
0
0
0
0
0
0
0
0
0
0
0
0
0
0
0
0
0
0
0
0
0
0
0
0
0
0
0
0
0
0
0
0
0
0
0
0
0
0
0
0
0
0
0
0
0
0
0
0
0
0
0
0
0
0
0
0
0
0
0
0
0
0
0
0
0
0
0
0
0
0
0
0
0
0
0
0
0
0
0
0
0
0
0
0
14
14
14
38
38
38
86
86
86
181
141
41
216
158
10
236
178
12
246
186
14
246
190
14
246
190
14
246
190
14
246
190
14
246
190
14
246
190
14
246
190
14
246
190
14
246
190
14
246
190
14
246
190
14
246
190
14
246
190
14
246
190
14
246
190
14
232
195
16
181
146
13
210
210
210
253
253
253
253
253
253
253
253
253
253
253
253
253
253
253
253
253
253
253
253
253
253
253
253
253
253
253
253
253
253
253
253
253
253
253
253
253
253
253
250
250
250
66
66
66
0
0
0
0
0
0
0
0
0
0
0
0
0
0
0
0
0
0
0
0
0
42
35
1
242
186
14
163
110
8
0
0
0
0
0
0
0
0
0
0
0
0
0
0
0
0
0
0
0
0
0
0
0
0
0
0
0
0
0
0
0
0
0
0
0
0
0
0
0
0
0
0
0
0
0
0
0
0
0
0
0
0
0
1
0
0
0
0
0
0
0
0
0
0
0
0
0
0
0
0
0
0
0
0
0
0
0
0
0
0
0
0
0
0
0
0
0
6
6
6
18
18
18
50
50
50
116
110
98
192
133
9
226
170
11
242
186
14
246
190
14
246
190
14
246
190
14
246
190
14
246
190
14
246
190
14
246
190
14
246
190
14
246
190
14
246
190
14
246
190
14
246
190
14
246
190
14
246
190
14
246
190
14
242
186
14
219
190
12
209
162
10
148
109
32
226
226
226
253
253
253
253
253
253
253
253
253
253
253
253
253
253
253
253
253
253
253
253
253
253
253
253
253
253
253
253
253
253
253
253
253
198
198
198
66
66
66
2
2
6
0
0
0
0
0
0
0
0
0
0
0
0
0
0
0
0
0
0
0
0
0
136
101
11
246
190
14
84
77
10
0
0
0
0
0
0
0
0
0
0
0
0
0
0
0
0
0
0
0
0
0
0
0
0
0
0
0
0
0
0
0
0
0
0
0
0
0
0
0
0
0
0
0
0
0
6
6
6
6
6
6
0
0
0
0
0
0
0
0
0
0
0
0
0
0
0
0
0
0
0
0
0
0
0
0
0
0
0
0
0
0
0
0
0
0
0
0
6
6
6
22
22
22
58
58
58
154
124
54
206
145
10
230
174
11
242
186
14
246
186
14
246
190
14
246
190
14
246
190
14
246
190
14
246
190
14
246
190
14
246
190
14
246
190
14
246
190
14
246
190
14
246
190
14
246
190
14
246
190
14
246
190
14
246
186
14
236
178
12
209
162
10
163
110
8
60
51
13
123
123
123
220
220
220
250
250
250
253
253
253
253
253
253
253
253
253
250
250
250
242
242
242
210
210
210
158
158
158
66
66
66
6
6
6
2
2
6
2
2
6
0
0
1
0
0
0
0
0
0
0
0
0
0
0
0
0
0
0
0
0
0
179
143
11
226
170
11
0
0
0
0
0
0
0
0
0
0
0
0
0
0
0
0
0
0
0
0
0
0
0
0
0
0
0
0
0
0
0
0
0
0
0
0
0
0
0
0
0
0
18
18
18
26
26
26
18
18
18
6
6
6
0
0
0
0
0
0
0
0
0
0
0
0
0
0
0
0
0
0
0
0
0
0
0
0
0
0
0
0
0
0
0
0
0
0
0
0
6
6
6
22
22
22
62
62
62
169
133
54
206
145
10
226
170
11
236
178
12
239
182
13
242
186
14
242
186
14
246
186
14
246
190
14
246
190
14
246
190
14
246
190
14
246
190
14
246
190
14
246
190
14
246
190
14
246
190
14
246
190
14
246
190
14
246
190
14
236
178
12
216
158
10
180
123
7
73
63
16
2
2
6
6
6
6
30
30
30
54
54
54
62
62
62
50
50
50
38
38
38
14
14
14
2
2
6
2
2
6
2
2
6
2
2
6
2
2
6
2
2
6
2
2
6
0
0
0
0
0
0
0
0
0
0
0
0
0
0
0
0
0
0
218
174
14
179
143
11
0
0
0
0
0
0
0
0
0
0
0
0
0
0
0
0
0
0
0
0
0
0
0
0
0
0
0
0
0
0
0
0
0
0
0
0
18
18
18
38
38
38
34
34
34
18
18
18
6
6
6
0
0
0
0
0
0
0
0
0
0
0
0
0
0
0
0
0
0
0
0
0
0
0
0
0
0
0
0
0
0
0
0
0
0
0
0
0
0
0
6
6
6
18
18
18
50
50
50
160
121
29
192
133
9
200
144
11
216
158
10
216
158
10
226
170
11
226
170
11
230
174
11
236
178
12
239
182
13
239
182
13
242
186
14
246
186
14
246
190
14
246
190
14
246
190
14
246
190
14
246
190
14
246
190
14
246
186
14
230
174
11
210
150
10
163
110
8
104
69
6
10
10
10
2
2
6
2
2
6
2
2
6
2
2
6
2
2
6
2
2
6
2
2
6
2
2
6
2
2
6
2
2
6
2
2
6
2
2
6
2
2
6
2
2
6
0
0
1
0
0
0
0
0
0
0
0
0
0
0
0
42
35
1
239
182
13
136
101
11
0
0
0
0
0
0
0
0
0
0
0
0
0
0
0
0
0
0
0
0
0
0
0
0
0
0
0
0
0
0
10
10
10
38
38
38
38
38
38
22
22
22
10
10
10
6
6
6
0
0
0
0
0
0
0
0
0
0
0
0
0
0
0
0
0
0
0
0
0
0
0
0
0
0
0
0
0
0
0
0
0
0
0
0
0
0
0
0
0
0
0
0
0
14
14
14
34
34
34
70
70
70
148
109
32
160
121
29
163
110
8
180
123
7
192
133
9
197
138
11
200
144
11
206
145
10
216
158
10
216
158
10
226
170
11
230
174
11
239
182
13
242
186
14
246
186
14
246
186
14
246
186
14
246
186
14
239
182
13
216
158
10
185
133
11
152
99
6
104
69
6
22
7
7
2
2
6
2
2
6
2
2
6
2
2
6
2
2
6
2
2
6
2
2
6
2
2
6
2
2
6
2
2
6
2
2
6
2
2
6
2
2
6
2
2
6
2
2
6
0
0
0
0
0
0
0
0
0
0
0
0
113
104
8
230
174
11
40
33
4
0
0
0
0
0
0
0
0
0
0
0
0
0
0
0
0
0
0
0
0
0
0
0
0
5
1
2
38
38
38
38
38
38
22
22
22
14
14
14
6
6
6
0
0
0
0
0
0
0
0
0
0
0
0
0
0
0
0
0
0
0
0
0
0
0
0
0
0
0
0
0
0
0
0
0
0
0
0
0
0
0
0
0
0
0
0
0
0
0
0
0
0
0
6
6
6
18
18
18
34
34
34
58
58
58
78
78
78
101
98
89
116
116
89
148
109
32
156
107
11
163
110
8
163
110
8
180
123
7
180
123
7
185
133
11
197
138
11
210
150
10
216
158
10
226
170
11
236
178
12
236
178
12
230
174
11
216
158
10
197
138
11
163
110
8
136
101
11
97
70
12
10
10
10
2
2
6
2
2
6
18
18
18
38
38
38
38
38
38
38
38
38
38
38
38
38
38
38
38
38
38
38
38
38
38
38
38
38
38
38
26
26
26
2
2
6
2
2
6
3
0
1
0
0
0
0
0
0
0
0
0
152
99
6
185
133
11
0
0
0
0
0
0
0
0
0
0
0
0
0
0
0
0
0
0
0
0
0
0
0
0
42
42
42
46
46
46
30
30
30
14
14
14
6
6
6
0
0
0
0
0
0
0
0
0
0
0
0
0
0
0
0
0
0
0
0
0
0
0
0
0
0
0
0
0
0
0
0
0
0
0
0
0
0
0
0
0
0
0
0
0
0
0
0
0
0
0
0
0
0
0
0
0
0
0
0
6
6
6
14
14
14
22
22
22
34
34
34
42
42
42
58
58
58
74
74
74
86
86
86
101
98
89
121
106
69
118
97
48
118
86
26
136
101
11
152
99
6
163
110
8
180
123
7
185
133
11
197
138
11
206
145
10
200
144
11
180
123
7
156
107
11
136
101
11
104
69
6
42
35
1
54
54
54
106
106
106
101
98
89
86
86
86
82
82
82
78
78
78
78
78
78
78
78
78
78
78
78
78
78
78
78
78
78
78
78
78
82
82
82
86
86
86
94
94
94
106
106
106
94
94
94
5
1
2
0
0
0
0
0
0
163
110
8
136
101
11
0
0
0
0
0
0
0
0
0
0
0
0
0
0
0
0
0
0
50
50
50
62
62
62
42
42
42
22
22
22
10
10
10
0
0
0
0
0
0
0
0
0
0
0
0
0
0
0
0
0
0
0
0
0
0
0
0
0
0
0
0
0
0
0
0
0
0
0
0
0
0
0
0
0
0
0
0
0
0
0
0
0
0
0
0
0
0
0
0
0
0
0
0
0
0
0
0
0
0
0
0
0
0
0
0
6
6
6
10
10
10
14
14
14
22
22
22
30
30
30
38
38
38
50
50
50
62
62
62
74
74
74
90
90
90
101
98
89
106
100
70
118
86
26
114
92
21
136
101
11
152
99
6
152
99
6
152
99
6
136
101
11
114
92
21
104
69
6
73
63
16
101
98
89
82
82
82
58
58
58
46
46
46
38
38
38
34
34
34
34
34
34
34
34
34
34
34
34
34
34
34
34
34
34
34
34
34
34
34
34
34
34
34
38
38
38
42
42
42
54
54
54
82
82
82
50
50
50
0
0
0
22
7
7
156
107
11
60
51
13
0
0
0
0
0
0
0
0
0
0
0
0
42
35
1
78
78
78
62
62
62
34
34
34
18
18
18
6
6
6
0
0
0
0
0
0
0
0
0
0
0
0
0
0
0
0
0
0
0
0
0
0
0
0
0
0
0
0
0
0
0
0
0
0
0
0
0
0
0
0
0
0
0
0
0
0
0
0
0
0
0
0
0
0
0
0
0
0
0
0
0
0
0
0
0
0
0
0
0
0
0
0
0
0
0
0
0
0
0
0
0
0
0
0
6
6
6
6
6
6
10
10
10
18
18
18
22
22
22
30
30
30
42
42
42
50
50
50
66
66
66
86
86
86
101
98
89
98
85
65
104
69
6
104
69
6
104
69
6
104
69
6
97
70
12
67
67
37
90
90
90
62
62
62
38
38
38
22
22
22
14
14
14
10
10
10
10
10
10
10
10
10
10
10
10
10
10
10
10
10
10
6
6
6
10
10
10
10
10
10
10
10
10
10
10
10
14
14
14
22
22
22
42
42
42
66
66
66
6
6
6
40
33
4
97
70
12
0
0
0
0
0
0
0
0
0
40
33
4
67
67
37
86
86
86
58
58
58
30
30
30
14
14
14
6
6
6
0
0
0
0
0
0
0
0
0
0
0
0
0
0
0
0
0
0
0
0
0
0
0
0
0
0
0
0
0
0
0
0
0
0
0
0
0
0
0
0
0
0
0
0
0
0
0
0
0
0
0
0
0
0
0
0
0
0
0
0
0
0
0
0
0
0
0
0
0
0
0
0
0
0
0
0
0
0
0
0
0
0
0
0
0
0
0
0
0
0
0
0
0
0
0
0
0
0
0
6
6
6
10
10
10
14
14
14
18
18
18
26
26
26
38
38
38
54
54
54
70
70
70
86
86
86
98
85
65
98
85
65
98
85
65
86
86
86
74
74
74
50
50
50
30
30
30
14
14
14
6
6
6
0
0
0
0
0
0
0
0
0
0
0
0
0
0
0
0
0
0
0
0
0
0
0
0
0
0
0
0
0
0
0
0
0
0
0
0
0
0
0
6
6
6
18
18
18
34
34
34
38
38
38
58
58
58
66
61
42
0
0
0
18
18
18
66
61
42
98
85
65
74
74
74
50
50
50
26
26
26
14
14
14
6
6
6
0
0
0
0
0
0
0
0
0
0
0
0
0
0
0
0
0
0
0
0
0
0
0
0
0
0
0
0
0
0
0
0
0
0
0
0
0
0
0
0
0
0
0
0
0
0
0
0
0
0
0
0
0
0
0
0
0
0
0
0
0
0
0
0
0
0
0
0
0
0
0
0
0
0
0
0
0
0
0
0
0
0
0
0
0
0
0
0
0
0
0
0
0
0
0
0
0
0
0
0
0
0
0
0
0
0
0
0
0
0
0
6
6
6
6
6
6
14
14
14
18
18
18
30
30
30
38
38
38
46
46
46
54
54
54
50
50
50
42
42
42
30
30
30
18
18
18
10
10
10
0
0
0
0
0
0
0
0
0
0
0
0
0
0
0
0
0
0
0
0
0
0
0
0
0
0
0
0
0
0
0
0
0
0
0
0
0
0
0
0
0
0
0
0
0
0
0
0
6
6
6
14
14
14
26
26
26
34
34
34
26
26
26
38
38
38
54
54
54
54
54
54
42
42
42
30
30
30
18
18
18
10
10
10
0
0
0
0
0
0
0
0
0
0
0
0
0
0
0
0
0
0
0
0
0
0
0
0
0
0
0
0
0
0
0
0
0
0
0
0
0
0
0
0
0
0
0
0
0
0
0
0
0
0
0
0
0
0
0
0
0
0
0
0
0
0
0
0
0
0
0
0
0
0
0
0
0
0
0
0
0
0
0
0
0
0
0
0
0
0
0
0
0
0
0
0
0
0
0
0
0
0
0
0
0
0
0
0
0
0
0
0
0
0
0
0
0
0
0
0
0
0
0
0
0
0
0
0
0
0
6
6
6
6
6
6
10
10
10
14
14
14
18
18
18
18
18
18
14
14
14
10
10
10
6
6
6
0
0
0
0
0
0
0
0
0
0
0
0
0
0
0
0
0
0
0
0
0
0
0
0
0
0
0
0
0
0
0
0
0
0
0
0
0
0
0
0
0
0
0
0
0
0
0
0
0
0
0
0
0
0
0
0
0
6
6
6
14
14
14
18
18
18
22
22
22
22
22
22
18
18
18
14
14
14
10
10
10
6
6
6
0
0
0
0
0
0
0
0
0
0
0
0
0
0
0
0
0
0
0
0
0
0
0
0
0
0
0
0
0
0
0
0
0
0
0
0
0
0
0
0
0
0
0
0
0
0
0
0
0
0
0
0
0
0
0
0
0
0
0
0
